<?xml version="1.0" encoding="UTF-8" standalone="no"?>
<!-- Generator: Adobe Illustrator 17.0.0, SVG Export Plug-In . SVG Version: 6.00 Build 0)  -->

<svg
   xmlns:dc="http://purl.org/dc/elements/1.1/"
   xmlns:cc="http://creativecommons.org/ns#"
   xmlns:rdf="http://www.w3.org/1999/02/22-rdf-syntax-ns#"
   xmlns:svg="http://www.w3.org/2000/svg"
   xmlns="http://www.w3.org/2000/svg"
   xmlns:sodipodi="http://sodipodi.sourceforge.net/DTD/sodipodi-0.dtd"
   xmlns:inkscape="http://www.inkscape.org/namespaces/inkscape"
   version="1.1"
   id="Layer_1"
   x="0px"
   y="0px"
   width="42px"
   height="42px"
   viewBox="0 0 42 42"
   enable-background="new 0 0 42 42"
   xml:space="preserve"
   inkscape:version="0.92.2 (5c3e80d, 2017-08-06)"
   sodipodi:docname="drivecopy.svg"><metadata
     id="metadata21"><rdf:RDF><cc:Work
         rdf:about=""><dc:format>image/svg+xml</dc:format><dc:type
           rdf:resource="http://purl.org/dc/dcmitype/StillImage" /><dc:title /></cc:Work></rdf:RDF></metadata><defs
     id="defs19" /><sodipodi:namedview
     pagecolor="#ffffff"
     bordercolor="#666666"
     borderopacity="1"
     objecttolerance="10"
     gridtolerance="10"
     guidetolerance="10"
     inkscape:pageopacity="0"
     inkscape:pageshadow="2"
     inkscape:window-width="1920"
     inkscape:window-height="1043"
     id="namedview17"
     showgrid="false"
     inkscape:zoom="16"
     inkscape:cx="25.993011"
     inkscape:cy="22.41757"
     inkscape:window-x="1366"
     inkscape:window-y="0"
     inkscape:window-maximized="1"
     inkscape:current-layer="layer4" /><g
     id="g3"><polygon
       fill="#EFF9FE"
       points="30.251,12.554 26.722,12.554 26.722,9.025 15.924,9.025 15.924,11.336 22.704,11.336    24.412,13.043 24.412,14.864 26.232,14.864 27.94,16.572 27.977,28.965 30.298,28.965  "
       id="polygon5" /><path
       fill="#3D6480"
       d="M32.003,30.666l-0.052-18.103l-1.708-1.708h-1.82v-1.82l-1.709-1.709H14.224v4.011h-4.01v23.34h17.779   l-0.012-4.01H32.003z M11.915,32.975V13.036h10.797v3.528h3.529l0.048,16.411H11.915z M27.94,16.572l-1.708-1.708h-1.82v-1.82   l-1.708-1.708h-6.779V9.025h10.798v3.529h3.529l0.047,16.411h-2.321L27.94,16.572z"
       id="path7" /><path
       fill="#EFF9FE"
       d="M22.711,16.564v-3.528H11.915v19.939h14.374L26.24,16.564H22.711z M17.309,26.182h-3.092v-0.8h3.092V26.182   z M23.988,23.406h-9.771v-0.8h9.771V23.406z M23.988,20.628h-9.771v-0.8h9.771V20.628z"
       id="path9" /><rect
       x="14.217"
       y="19.829"
       fill="#3D6480"
       width="9.771"
       height="0.8"
       id="rect11" /><rect
       x="14.217"
       y="22.606"
       fill="#3D6480"
       width="9.771"
       height="0.8"
       id="rect13" /></g><g
     inkscape:groupmode="layer"
     id="layer1"
     inkscape:label="LayerDrive" /><g
     inkscape:groupmode="layer"
     id="layer4"
     inkscape:label="test"
     style="display:inline"><g
       aria-label="G"
       style="font-style:normal;font-variant:normal;font-weight:normal;font-stretch:normal;font-size:10.66666698px;line-height:1;font-family:Comfortaa;-inkscape-font-specification:Comfortaa;letter-spacing:0px;word-spacing:0px;fill:#3d6480;fill-opacity:1;stroke:#000000;stroke-width:0.2;stroke-linecap:square;stroke-linejoin:round;stroke-miterlimit:4;stroke-dasharray:none;stroke-opacity:1;paint-order:stroke fill markers"
       id="flowRoot3849"
       transform="matrix(0.823102,0,0,0.823102,6.757916,3.9851464)"><path
         d="m 13.666349,30.402867 c 0.120889,0 0.220445,0.03911 0.298667,0.117334 0.07822,0.07111 0.117333,0.167111 0.117333,0.288 v 2.645333 c 0,0.120889 -0.03911,0.220444 -0.117333,0.298667 -0.661333,0.611555 -1.532445,0.917333 -2.613334,0.917333 -0.753777,0 -1.4471105,-0.192 -2.0799996,-0.576 -0.6328889,-0.384 -1.1377778,-0.903111 -1.5146667,-1.557333 -0.3697778,-0.654223 -0.5546667,-1.368889 -0.5546667,-2.144 0,-0.768 0.1848889,-1.479111 0.5546667,-2.133334 0.3697777,-0.654222 0.8711111,-1.173333 1.504,-1.557333 0.6328889,-0.384 1.3297773,-0.576 2.0906663,-0.576 0.512,0 0.977778,0.07467 1.397334,0.224 0.419555,0.149333 0.824889,0.387556 1.216,0.714667 0,0 0.117333,0.138664 0.117333,0.245333 0,0.05689 -0.01422,0.11022 -0.04267,0.16 -0.02845,0.04267 -0.06756,0.07467 -0.117334,0.096 -0.01422,0.04978 -0.04622,0.09245 -0.096,0.128 -0.04978,0.02845 -0.103113,0.04267 -0.16,0.04267 -0.09956,0 -0.188444,-0.03556 -0.266667,-0.106667 -0.277333,-0.248889 -0.579555,-0.430222 -0.906666,-0.544 -0.327111,-0.113778 -0.707556,-0.170667 -1.141334,-0.170667 -0.597333,0 -1.152,0.16 -1.6639996,0.48 -0.512,0.312889 -0.9208889,0.736001 -1.2266667,1.269334 -0.2986667,0.533333 -0.448,1.109333 -0.448,1.728 0,0.632889 0.1493333,1.216 0.448,1.749333 0.2986667,0.533333 0.704,0.956444 1.216,1.269333 0.5120003,0.312889 1.0702223,0.469334 1.6746663,0.469334 0.689778,0 1.329778,-0.202667 1.92,-0.608 V 31.13887 h -3.078214 c -0.120888,0 -0.2204436,-0.03556 -0.2986656,-0.106666 -0.078223,-0.07111 -0.117334,-0.16 -0.117334,-0.266667 0,-0.106667 0.039111,-0.192 0.117334,-0.256 0.078222,-0.07111 0.1777776,-0.106667 0.2986656,-0.106667 z"
         id="path3857"
         inkscape:connector-curvature="0"
         sodipodi:nodetypes="ccsscsscssssscscccscssccssssccsssccc"
         style="fill:#3d6480;fill-opacity:1;stroke:#000000;stroke-width:0.2;stroke-linecap:square;stroke-linejoin:round;stroke-miterlimit:4;stroke-dasharray:none;stroke-opacity:1;paint-order:stroke fill markers" /></g></g></svg>