<?xml version="1.0" encoding="UTF-8" standalone="no"?>
<!-- Generator: Adobe Illustrator 17.0.0, SVG Export Plug-In . SVG Version: 6.00 Build 0)  -->

<svg
   xmlns:sketch="http://www.bohemiancoding.com/sketch/ns"
   xmlns:dc="http://purl.org/dc/elements/1.1/"
   xmlns:cc="http://creativecommons.org/ns#"
   xmlns:rdf="http://www.w3.org/1999/02/22-rdf-syntax-ns#"
   xmlns:svg="http://www.w3.org/2000/svg"
   xmlns="http://www.w3.org/2000/svg"
   xmlns:sodipodi="http://sodipodi.sourceforge.net/DTD/sodipodi-0.dtd"
   xmlns:inkscape="http://www.inkscape.org/namespaces/inkscape"
   version="1.1"
   id="Layer_1"
   x="0px"
   y="0px"
   width="42px"
   height="42px"
   viewBox="0 0 42 42"
   enable-background="new 0 0 42 42"
   xml:space="preserve"
   inkscape:version="0.91 r13725"
   sodipodi:docname="drivecopy.svg"><metadata
     id="metadata21"><rdf:RDF><cc:Work
         rdf:about=""><dc:format>image/svg+xml</dc:format><dc:type
           rdf:resource="http://purl.org/dc/dcmitype/StillImage" /><dc:title></dc:title></cc:Work></rdf:RDF></metadata><defs
     id="defs19" /><sodipodi:namedview
     pagecolor="#ffffff"
     bordercolor="#666666"
     borderopacity="1"
     objecttolerance="10"
     gridtolerance="10"
     guidetolerance="10"
     inkscape:pageopacity="0"
     inkscape:pageshadow="2"
     inkscape:window-width="1785"
     inkscape:window-height="997"
     id="namedview17"
     showgrid="false"
     inkscape:zoom="16"
     inkscape:cx="28.271042"
     inkscape:cy="18.252304"
     inkscape:window-x="757"
     inkscape:window-y="837"
     inkscape:window-maximized="0"
     inkscape:current-layer="Layer_1" /><g
     id="g3"><polygon
       fill="#EFF9FE"
       points="30.251,12.554 26.722,12.554 26.722,9.025 15.924,9.025 15.924,11.336 22.704,11.336    24.412,13.043 24.412,14.864 26.232,14.864 27.94,16.572 27.977,28.965 30.298,28.965  "
       id="polygon5" /><path
       fill="#3D6480"
       d="M32.003,30.666l-0.052-18.103l-1.708-1.708h-1.82v-1.82l-1.709-1.709H14.224v4.011h-4.01v23.34h17.779   l-0.012-4.01H32.003z M11.915,32.975V13.036h10.797v3.528h3.529l0.048,16.411H11.915z M27.94,16.572l-1.708-1.708h-1.82v-1.82   l-1.708-1.708h-6.779V9.025h10.798v3.529h3.529l0.047,16.411h-2.321L27.94,16.572z"
       id="path7" /><path
       fill="#EFF9FE"
       d="M22.711,16.564v-3.528H11.915v19.939h14.374L26.24,16.564H22.711z M17.309,26.182h-3.092v-0.8h3.092V26.182   z M23.988,23.406h-9.771v-0.8h9.771V23.406z M23.988,20.628h-9.771v-0.8h9.771V20.628z"
       id="path9" /><rect
       x="14.217"
       y="19.829"
       fill="#3D6480"
       width="9.771"
       height="0.8"
       id="rect11" /><rect
       x="14.217"
       y="22.606"
       fill="#3D6480"
       width="9.771"
       height="0.8"
       id="rect13" /><rect
       x="14.217"
       y="25.382"
       fill="#3D6480"
       width="3.092"
       height="0.8"
       id="rect15" /></g><g
     inkscape:groupmode="layer"
     id="layer1"
     inkscape:label="LayerDrive" /><g
     sketch:type="MSPage"
     id="Page-1"
     style="fill:none;fill-rule:evenodd;stroke:none;stroke-width:1"
     transform="matrix(0.01015414,0,0,0.01032496,10.376899,23.955596)"><path
       sketch:type="MSShapeGroup"
       id="Rectangle-1"
       d="M 789.50501,684 1181.885,684 788,1 393,1 789.50501,684 Z m 0,0"
       inkscape:connector-curvature="0"
       style="fill:#ffcf63" /><path
       transform="matrix(0.5,-0.8660254,0.8660254,0.5,-395.93495,1023.915)"
       sketch:type="MSShapeGroup"
       id="Rectangle-1-copy"
       d="m 690.83143,1196.3472 392.37997,0 -393.88498,-682.99999 -395,0 396.50501,682.99999 z m 0,0"
       inkscape:connector-curvature="0"
       style="fill:#2c62df" /><path
       transform="matrix(0.5,0.8660254,-0.8660254,0.5,591.85817,0.66071435)"
       sketch:type="MSShapeGroup"
       id="path3514"
       d="m 297.41942,854.39457 392.37996,0 -393.88498,-683 -394.999995,0 396.505015,683 z m 0,0"
       inkscape:connector-curvature="0"
       style="fill:#199b4e" /></g></svg>